<mxfile host="app.diagrams.net" modified="2022-02-08T12:17:30.403Z" agent="5.0 (Windows NT 10.0; Win64; x64) AppleWebKit/537.36 (KHTML, like Gecko) Chrome/97.0.4692.99 Safari/537.36" etag="sSgqYDkE8A1oek9CgJ7a" version="16.5.3" type="github">
  <diagram id="QHtwgJzUFFGJsDkYa1ve" name="第 1 页">
    <mxGraphModel dx="2889" dy="2291" grid="1" gridSize="10" guides="1" tooltips="1" connect="1" arrows="1" fold="1" page="1" pageScale="1" pageWidth="827" pageHeight="1169" math="0" shadow="0">
      <root>
        <mxCell id="0" />
        <mxCell id="1" parent="0" />
        <mxCell id="eNco1QbgEmGTv8bzj9Uy-3" value="绩效考核&lt;br style=&quot;font-size: 17px;&quot;&gt;功能延期" style="whiteSpace=wrap;html=1;aspect=fixed;fontStyle=1;fontSize=17;" vertex="1" parent="1">
          <mxGeometry x="1220" y="450" width="130" height="130" as="geometry" />
        </mxCell>
        <mxCell id="eNco1QbgEmGTv8bzj9Uy-5" value="M1计划延期问题总结" style="rounded=0;whiteSpace=wrap;html=1;fontStyle=1;fontSize=22;labelBackgroundColor=none;fillColor=#dae8fc;strokeColor=#6c8ebf;" vertex="1" parent="1">
          <mxGeometry x="370" y="-60" width="300" height="90" as="geometry" />
        </mxCell>
        <mxCell id="eNco1QbgEmGTv8bzj9Uy-6" value="" style="shape=singleArrow;whiteSpace=wrap;html=1;labelBackgroundColor=none;fontSize=17;arrowWidth=0.625;arrowSize=0.11951219512195121;" vertex="1" parent="1">
          <mxGeometry x="-160" y="475" width="1380" height="80" as="geometry" />
        </mxCell>
        <mxCell id="eNco1QbgEmGTv8bzj9Uy-8" value="" style="endArrow=classic;html=1;rounded=0;fontSize=17;" edge="1" parent="1">
          <mxGeometry width="50" height="50" relative="1" as="geometry">
            <mxPoint x="10" y="300" as="sourcePoint" />
            <mxPoint x="200" y="475" as="targetPoint" />
          </mxGeometry>
        </mxCell>
        <mxCell id="eNco1QbgEmGTv8bzj9Uy-9" value="平台继承环境带来的延期" style="text;html=1;align=center;verticalAlign=middle;resizable=0;points=[];autosize=1;strokeColor=none;fillColor=none;fontSize=17;rotation=45;" vertex="1" parent="1">
          <mxGeometry x="-10" y="342" width="200" height="30" as="geometry" />
        </mxCell>
        <mxCell id="eNco1QbgEmGTv8bzj9Uy-10" value="" style="endArrow=classic;html=1;rounded=0;fontSize=17;exitX=0.269;exitY=0.98;exitDx=0;exitDy=0;exitPerimeter=0;" edge="1" parent="1" source="eNco1QbgEmGTv8bzj9Uy-11">
          <mxGeometry width="50" height="50" relative="1" as="geometry">
            <mxPoint x="-320" y="357" as="sourcePoint" />
            <mxPoint x="65" y="356.5" as="targetPoint" />
          </mxGeometry>
        </mxCell>
        <mxCell id="eNco1QbgEmGTv8bzj9Uy-11" value="&amp;nbsp; &amp;nbsp; &amp;nbsp; &amp;nbsp; &amp;nbsp; &amp;nbsp; &amp;nbsp; &amp;nbsp; &amp;nbsp; &amp;nbsp; &amp;nbsp; 继承的环境运行较慢，&lt;br&gt;&amp;nbsp; &amp;nbsp; &amp;nbsp; &amp;nbsp; &amp;nbsp; &amp;nbsp; &amp;nbsp; &amp;nbsp; &amp;nbsp; &amp;nbsp; &amp;nbsp; &amp;nbsp; &amp;nbsp; &amp;nbsp; &amp;nbsp;来回切环境浪费了时间&amp;nbsp; &amp;nbsp; &amp;nbsp; &amp;nbsp;" style="text;html=1;align=center;verticalAlign=middle;resizable=0;points=[];autosize=1;strokeColor=none;fillColor=none;fontSize=17;" vertex="1" parent="1">
          <mxGeometry x="-320" y="310" width="360" height="50" as="geometry" />
        </mxCell>
        <mxCell id="eNco1QbgEmGTv8bzj9Uy-12" value="配合平台优化继承带来&lt;br&gt;&amp;nbsp; &amp;nbsp; &amp;nbsp; &amp;nbsp; 的问题（计划之外的工作）" style="text;html=1;align=center;verticalAlign=middle;resizable=0;points=[];autosize=1;strokeColor=none;fillColor=none;fontSize=17;" vertex="1" parent="1">
          <mxGeometry x="-180" y="370" width="260" height="50" as="geometry" />
        </mxCell>
        <mxCell id="eNco1QbgEmGTv8bzj9Uy-13" value="" style="endArrow=classic;html=1;rounded=0;fontSize=17;" edge="1" parent="1">
          <mxGeometry width="50" height="50" relative="1" as="geometry">
            <mxPoint x="-190" y="420" as="sourcePoint" />
            <mxPoint x="120" y="420" as="targetPoint" />
          </mxGeometry>
        </mxCell>
        <mxCell id="eNco1QbgEmGTv8bzj9Uy-16" value="" style="endArrow=classic;html=1;rounded=0;fontSize=17;" edge="1" parent="1">
          <mxGeometry width="50" height="50" relative="1" as="geometry">
            <mxPoint x="480" y="269.5" as="sourcePoint" />
            <mxPoint x="670" y="444.5" as="targetPoint" />
          </mxGeometry>
        </mxCell>
        <mxCell id="eNco1QbgEmGTv8bzj9Uy-17" value="计划问题" style="text;html=1;align=center;verticalAlign=middle;resizable=0;points=[];autosize=1;strokeColor=none;fillColor=none;fontSize=17;rotation=45;" vertex="1" parent="1">
          <mxGeometry x="550" y="320" width="80" height="30" as="geometry" />
        </mxCell>
        <mxCell id="eNco1QbgEmGTv8bzj9Uy-18" value="" style="endArrow=classic;html=1;rounded=0;fontSize=17;" edge="1" parent="1">
          <mxGeometry width="50" height="50" relative="1" as="geometry">
            <mxPoint x="350" y="360" as="sourcePoint" />
            <mxPoint x="540" y="360" as="targetPoint" />
          </mxGeometry>
        </mxCell>
        <mxCell id="eNco1QbgEmGTv8bzj9Uy-19" value="前期计划不全，导致后期开发时&lt;br&gt;出现了计划之外的工作" style="text;html=1;align=center;verticalAlign=middle;resizable=0;points=[];autosize=1;strokeColor=none;fillColor=none;fontSize=17;" vertex="1" parent="1">
          <mxGeometry x="285" y="310" width="250" height="50" as="geometry" />
        </mxCell>
        <mxCell id="eNco1QbgEmGTv8bzj9Uy-20" value="" style="endArrow=classic;html=1;rounded=0;fontSize=17;" edge="1" parent="1">
          <mxGeometry width="50" height="50" relative="1" as="geometry">
            <mxPoint x="-10" y="785" as="sourcePoint" />
            <mxPoint x="220" y="565" as="targetPoint" />
          </mxGeometry>
        </mxCell>
        <mxCell id="eNco1QbgEmGTv8bzj9Uy-21" value="能力问题" style="text;html=1;align=center;verticalAlign=middle;resizable=0;points=[];autosize=1;strokeColor=none;fillColor=none;fontSize=17;rotation=-45;" vertex="1" parent="1">
          <mxGeometry x="100" y="660" width="80" height="30" as="geometry" />
        </mxCell>
        <mxCell id="eNco1QbgEmGTv8bzj9Uy-22" value="&amp;nbsp;对IRR二期代码和业务不熟悉，&lt;br&gt;导致开发效率低且代码反复修改&amp;nbsp; &amp;nbsp;" style="text;html=1;align=left;verticalAlign=middle;resizable=0;points=[];autosize=1;strokeColor=none;fillColor=none;fontSize=17;" vertex="1" parent="1">
          <mxGeometry x="-110" y="570" width="270" height="50" as="geometry" />
        </mxCell>
        <mxCell id="eNco1QbgEmGTv8bzj9Uy-23" value="" style="endArrow=classic;html=1;rounded=0;fontSize=17;" edge="1" parent="1">
          <mxGeometry width="50" height="50" relative="1" as="geometry">
            <mxPoint x="370" y="440" as="sourcePoint" />
            <mxPoint x="590" y="440" as="targetPoint" />
          </mxGeometry>
        </mxCell>
        <mxCell id="eNco1QbgEmGTv8bzj9Uy-24" value="" style="endArrow=classic;html=1;rounded=0;fontSize=17;" edge="1" parent="1">
          <mxGeometry width="50" height="50" relative="1" as="geometry">
            <mxPoint x="-170" y="720" as="sourcePoint" />
            <mxPoint x="50" y="720" as="targetPoint" />
          </mxGeometry>
        </mxCell>
        <mxCell id="eNco1QbgEmGTv8bzj9Uy-25" value="" style="endArrow=classic;html=1;rounded=0;fontSize=17;" edge="1" parent="1">
          <mxGeometry width="50" height="50" relative="1" as="geometry">
            <mxPoint x="440" y="795" as="sourcePoint" />
            <mxPoint x="670" y="575" as="targetPoint" />
          </mxGeometry>
        </mxCell>
        <mxCell id="eNco1QbgEmGTv8bzj9Uy-26" value="" style="endArrow=classic;html=1;rounded=0;fontSize=17;" edge="1" parent="1">
          <mxGeometry width="50" height="50" relative="1" as="geometry">
            <mxPoint x="-70" y="630" as="sourcePoint" />
            <mxPoint x="150" y="630" as="targetPoint" />
          </mxGeometry>
        </mxCell>
        <mxCell id="eNco1QbgEmGTv8bzj9Uy-27" value="和前端团队成员讨论一&lt;br&gt;些问题时用时过长。" style="text;html=1;align=center;verticalAlign=middle;resizable=0;points=[];autosize=1;strokeColor=none;fillColor=none;fontSize=17;" vertex="1" parent="1">
          <mxGeometry x="350" y="380" width="190" height="50" as="geometry" />
        </mxCell>
        <mxCell id="eNco1QbgEmGTv8bzj9Uy-28" value="后期测试人员发现的一些bug&lt;br&gt;有很代码多兼容性的问题，在&lt;br&gt;实际的开发中没有测试IRR二期的&lt;br&gt;环境" style="text;html=1;align=left;verticalAlign=middle;resizable=0;points=[];autosize=1;strokeColor=none;fillColor=none;fontSize=17;" vertex="1" parent="1">
          <mxGeometry x="-185" y="635" width="270" height="90" as="geometry" />
        </mxCell>
      </root>
    </mxGraphModel>
  </diagram>
</mxfile>
